<?xml version="1.0" encoding="utf-8"?>
<!-- Generator: Adobe Illustrator 16.0.0, SVG Export Plug-In . SVG Version: 6.00 Build 0)  -->
<!DOCTYPE svg PUBLIC "-//W3C//DTD SVG 1.1//EN" "http://www.w3.org/Graphics/SVG/1.1/DTD/svg11.dtd">
<svg version="1.1" id="Layer_1" xmlns="http://www.w3.org/2000/svg" xmlns:xlink="http://www.w3.org/1999/xlink" x="0px" y="0px"
	 width="2500px" height="706px" viewBox="0 0 2500 706" enable-background="new 0 0 2500 706" xml:space="preserve">
<path fill="#5B5B5B" d="M143.746,0.541c-22.863,0-52.503,24.244-69.988,40.383C35.318,75.045,0.5,137.788,0.5,188.148
	c0,71.56,60.858,98.571,76.251,98.571c5.075,0,9.402-2.617,9.402-9.505c0-5.397-3.424-9.89-6.83-14.504
	c-14.094-21.547-18.621-42.11-18.621-69.845c0-57.826,26.67-110.829,48.792-135.083c4.079-4.39,13.296-13.871,16.054-13.871
	c2.737,0,3.415,2.229,3.415,9.121l-2.569,378.481c0,59.167-17.072,82.671-17.072,96.602c0,6.121,2.65,7.711,7.71,7.711
	c23.959,0,47.836-29.202,54.6-39.853c20.977-36.231,26.121-64.515,26.121-146.097V31.84c0-8.609-2.415-12.33-10.593-17.638
	C175.199,6.606,161.496,0.541,143.746,0.541z M828.789,1.596c-11.27,0-16.087,5.891-16.619,24.119l-2.5,75.476l-66.009-2.287
	c-4.004-0.103-5.813,1.163-7.565,4.682c-5.605,10.511-8.556,18.747-8.556,32.46c0,11.167,5.063,12.357,9.577,12.357l68.679,1.973
	l-0.211,144.196c0,30.583-19.299,70.258-53.543,103.256c0,0,2.945-9.962,2.777-20.415c0-29.587-19.041-56.399-44.427-75.373
	l-61.96-46.611c12.988-15.025,34.993-44.825,34.993-69.988c0-19.509-12.268-27.705-35.136-27.705
	c-32.274,0-69.704,29.56-69.704,73.401c0,15.98,7.109,30.365,17.918,41.366c-14.923,28.313-36.036,65.565-51.715,92.095
	c-11.842,20.313-31.874,51.434-43.727,51.434c-8.738,0-12.777-13.748-12.777-66.571c0-43.887,3.118-91.602,4.683-137.402
	c0-10.498-1.722-20.183-15.351-29.678c-12.538-8.033-28.021-19.252-43.969-19.252c-35.456,0-59.61,32.626-76.179,64.527
	c-17.147,33.063-26.419,60.926-39.5,101.352l1.444-139.127c0.445-9.92-2.06-13.771-9.998-17.146
	c-10.298-4.367-25.455-9.402-38.901-9.402c-11.236,0-12.603,4.845-12.603,16.651l-1.512,166.939l-0.172,64.388
	c0,58.051,7.27,67.73,41.716,67.73c19.072,0,25.181-2.24,25.559-18.094c0.522-10.485,5.538-35.888,12.322-61.363
	c19.843-75.195,43.354-134.67,83.892-180.001c4.227-4.399,7.495-2.825,6.829,3.414c0,0-6.409,101.764-6.409,143.389
	c0,74.029,11.392,112.657,48.226,112.657c36.151,0,71.657-46.448,91.039-77.806l62.175-103.994
	c40.288,34.33,68.4,60.946,68.4,93.326c0,20.125-12.697,39.815-32.039,39.815c-24.172,0-39.614-25.491-55.941-25.491
	c-13.551,0-30.943,26.162-30.943,41.017c0,14.024,30.604,33.864,85.514,33.864c81.059,0,124.542-55.629,150.638-117.23
	c4.995,73.113,34.127,115.821,79.563,115.821c29.802,0,64.247-37.652,79.915-83.646c0,0,1.547,11.939,13.445,36.401
	c16.38,31.944,41.279,46.612,72.208,46.612c38.468,0,71.371-23.321,91.459-62.453c3.046,29.652,27.942,62.308,67.98,62.308
	c25.133,0,48.046-19.257,63.086-50.977c0,0,19.481,52.388,75.831,52.388c31.648,0,69.126-29.319,78.083-50.623l0.985,30.981
	l-83.605,77.1c-24.277,23.565-50.101,57.425-50.101,94.912c0,47.678,45.015,75.093,84.63,75.093
	c41.179,0,68.501-26.089,83.469-47.948c18.836-28.285,26.791-81.597,26.791-133.709l-1.866-78.36
	c56.349-61.939,100.45-147.553,120.083-208.129l42.772-1.126c8.285-0.558,7.873,2.705,6.727,7.535
	c-7.518,31.767-14.082,67.743-14.082,103.571c0,59.191,13.634,84.95,33.231,106.001c17.039,17.638,33.983,23.586,51.819,23.586
	c34.88,0,56.776-28.804,63.721-46.962c16.379,31.944,40.509,46.822,71.429,46.822c38.472,0,71.374-23.321,91.465-62.453
	c3.045,29.652,27.938,62.308,67.978,62.308c29.913,0,47.263-17.26,60.906-49.779c0.275,10.46,0.679,21.611,0.985,32.066
	c0.361,5.411,4.686,8.834,8.557,10.246c12.715,4.812,23.877,7.22,33.901,7.22c26.146,0,31.824-5.371,31.824-22.463
	c0-28.19,0.826-72.733,8.837-108.496c8.503-35.605,21.336-75.914,39.044-103.959c1.594-2.898,5.5-2.138,5.671,1.374
	c2.542,60.007,6.556,161.589,22.319,187.886c7.777,12.542,19.808,21.684,37.808,21.684c8.441,0,18.789-3.599,21.437-5.843
	c2.683-2.093,4.034-4.417,3.871-8.729c0-76.712,23.925-150.979,47.881-200.911c0.658-1.481,2.524-1.597,2.462,0.353l-1.336,55.273
	c0,90.78,6.544,148.134,51.89,175.706c8.916,4.988,18.968,7.594,29.185,7.564c23.2,0,44.238-12.957,54.637-33.796
	c8.471-16.193,16.406-47.362,16.406-65.018c0-6.835,0.08-17.958-11.123-17.958c-6.145,0-9.835,4.529-11.305,11.371
	c-3.57,14.83-6.501,27.548-12.042,42.21c-5.295,13.997-13.198,22.147-22.567,22.147c-11.006,0-16.592-8.661-19.785-14.014
	c-14.044-21.422-15.17-70.632-15.17-111.705l3.381-105.719c0-8.746-3.65-19.214-17.146-26.932
	c-9.06-5.215-31.973-15.032-46.012-15.032c-13.018,0-19.319,7.372-24.012,18.195c-8.811,19.439-38.256,95.688-46.15,157.681
	c-0.283,1.634-2.32,1.979-2.463-0.105c-4.104-43.839-6.209-96.659-6.164-132.295c0-10.773-2.635-26.174-25.487-36.153
	c-11.106-4.607-20.293-7.428-31.512-7.428c-13.919,0-16.912,6.812-21.897,15.839c-15.768,29.134-26.672,67.127-43.016,115.05
	l0.248-109.66c0-5.127-3.143-11.849-12.146-13.658c-22.325-5.13-32.668-7.46-41.47-7.46c-6.409,0-9.93,5.107-9.93,10.631
	l-1.198,186.972c-4.32,22.888-21.82,77.521-46.647,77.521c-20.378,0-29.888-20.646-29.888-106.947l3.699-140.258
	c0-8.859-5.815-12.58-14.292-16.331c-12.119-4.815-21.762-6.728-34.079-6.728c-15.46,0-20.766,7.4-17.638,25.176
	c-16.994-22.993-33.983-35.701-63.999-35.701c-60.26,0-105.683,72.485-105.683,177.82c-0.591,29.537,6.546,58.895,6.546,58.895
	c-5.453,24.515-18.271,44.497-35.979,44.497c-22.34,0-36.576-31.584-36.576-86.321c0-54.9,20.911-116.819,20.911-133.602
	c0-19.512-12.786-31.856-35.416-31.856c-11.336,0-53.391,9.539-74.95,12.67c0,0,2.433-10.268,2.253-18.341
	c0-19.239-9.026-31.297-31.437-31.297c-27.385,0-47.493,19.555-47.493,52.916c0,14.968,8.621,28.816,20.033,36.256
	c-14.813,61.782-38.896,107.729-74.388,159.057l2.991-207.848c0-6.757-1.8-10.953-15.035-16.091
	c-6.997-3.023-18.401-6.515-32.775-6.515c-20.833,0-19.454,14.878-18.341,26.017c-9.532-16.902-30.4-36.965-62.595-36.965
	c-87.733,0-114.668,133.784-101.46,228.794c0,11.584-11.311,52.703-36.859,52.703c-20.377,0-29.887-20.646-29.887-106.947
	l3.733-140.258c0-8.861-5.855-12.583-14.332-16.331c-12.119-4.815-21.727-6.728-34.044-6.728c-15.463,0-20.768,7.4-17.64,25.173
	c-16.995-22.993-34.02-35.7-64.037-35.7c-60.26,0-106.284,66.291-106.284,171.621c0,40.208-34.619,101.564-58.896,101.564
	c-13.486,0-27.846-24.757-27.846-88.011c0.067-43.115,5.948-189.893,5.948-189.893l84.737-1.374c4.044-0.037,6.387-4.457,7.886-7.18
	c3.891-7.895,5.773-13.152,5.773-22.6c0-8.523-1.707-11.637-12.638-12.252l-84.457-5.07l3.593-78.679
	c0.253-4.968-2.745-8.206-8.168-10.631C861.536,7.783,841.487,1.599,828.789,1.596z M1085.25,207.753
	c22.593,0,45.519,20.605,45.519,93.712c0,92.047-33.534,134.872-59.319,134.872c-24.175,0-42.525-34.122-42.525-101.144
	C1028.924,267.448,1046.845,207.753,1085.25,207.753L1085.25,207.753z M1898.893,207.753c22.593,0,45.518,20.605,45.518,93.712
	c0,92.047-33.533,134.872-59.318,134.872c-24.175,0-42.528-34.122-42.528-101.144
	C1842.567,267.448,1860.487,207.753,1898.893,207.753L1898.893,207.753z M1382.833,208.176c29.485,0,42.528,30.391,42.528,89.31
	c0,88.831-26.406,139.41-58.477,139.41c-20.473,0-44.014-33.616-42.772-99.735C1324.113,294.885,1337.897,208.176,1382.833,208.176
	L1382.833,208.176z M1432.751,505.339v34.99c0,116.105-30.938,135.923-55.798,135.923c-9.42,0-32.493-7.114-32.493-35.838
	c0-40.153,41.979-85.831,55.025-99.945L1432.751,505.339L1432.751,505.339z"/>
</svg>
